<svg width="21" height="21" viewBox="0 0 21 21" fill="none" xmlns="http://www.w3.org/2000/svg">
<path d="M8.9502 5.64365L17.0752 5.64365M8.9502 5.64365C8.9502 6.334 8.39055 6.89365 7.7002 6.89365C7.00984 6.89365 6.4502 6.334 6.4502 5.64365M8.9502 5.64365C8.9502 4.95329 8.39055 4.39365 7.7002 4.39365C7.00984 4.39365 6.4502 4.95329 6.4502 5.64365M3.3252 5.64365H6.4502M8.9502 15.6436H17.0752M8.9502 15.6436C8.9502 16.334 8.39055 16.8936 7.7002 16.8936C7.00984 16.8936 6.4502 16.334 6.4502 15.6436M8.9502 15.6436C8.9502 14.9533 8.39055 14.3936 7.7002 14.3936C7.00984 14.3936 6.4502 14.9533 6.4502 15.6436M3.3252 15.6436L6.4502 15.6436M13.9502 10.6436L17.0752 10.6436M13.9502 10.6436C13.9502 11.334 13.3906 11.8936 12.7002 11.8936C12.0098 11.8936 11.4502 11.334 11.4502 10.6436M13.9502 10.6436C13.9502 9.95329 13.3906 9.39365 12.7002 9.39365C12.0098 9.39365 11.4502 9.95329 11.4502 10.6436M3.3252 10.6436H11.4502" stroke="#2B1C9A" stroke-width="1.25" stroke-linecap="round" stroke-linejoin="round"/>
</svg>
