<svg width="441" height="157" viewBox="0 0 441 157" fill="none" xmlns="http://www.w3.org/2000/svg">
<rect width="441" height="157" fill="white"/>
<path d="M116.016 95.5781H129.177V43.7812C129.177 43.4375 128.833 43 128.224 43H116.792C116.448 43 116.016 43.2604 115.839 43.5208L92.1979 94.276L67.3385 43.5208C67.25 43.2604 66.7344 43 66.474 43H54.8646C54.2604 43 54 43.4375 54 43.7812V111.51C54 111.859 54.2604 112.292 54.8646 112.292H66.2969C66.8177 112.292 67.25 111.859 67.25 111.51V72.625L86.0469 109C86.1354 109.26 86.651 109.521 86.9115 109.521H97.5677C97.8281 109.521 98.2604 109.26 98.3438 109L116.016 73.5781V95.5781Z" fill="#2B1C9A"/>
<path d="M176.565 103.433V68.4847H170.232L170.299 73.1357C167.195 68.9378 161.966 67.9014 157.638 67.9014C145.815 67.9014 138.966 76.3649 138.966 85.7972C138.966 95.4222 145.555 104.016 157.768 104.016C162.096 103.948 167.716 102.526 170.232 98.7191V103.433H176.565ZM170.232 85.9274C170.232 94.3232 163.45 98.3962 157.638 98.3962C149.883 98.3962 145.299 92.3857 145.299 85.7972C145.299 78.8857 149.95 73.4587 157.638 73.4587C163.581 73.4587 170.232 77.5941 170.232 85.9274Z" fill="#2B1C9A"/>
<path d="M221.91 103.433V68.4847H215.576L215.644 73.1357C212.54 68.9378 207.311 67.9014 202.983 67.9014C191.16 67.9014 184.311 76.3649 184.311 85.7972C184.311 95.4222 190.899 104.016 203.113 104.016C207.441 103.948 213.061 102.526 215.576 98.7191V103.433H221.91ZM215.576 85.9274C215.576 94.3232 208.795 98.3962 202.983 98.3962C195.227 98.3962 190.644 92.3857 190.644 85.7972C190.644 78.8857 195.295 73.4587 202.983 73.4587C208.925 73.4587 215.576 77.5941 215.576 85.9274Z" fill="#2B1C9A"/>
<path d="M254.27 69.9066L260.729 69.6462C259.567 61.3805 252.333 57.7607 245.354 57.7607C240.119 57.7607 234.697 59.8285 231.661 63.766C229.979 65.9639 229.14 68.5472 229.14 71.2607C229.14 71.5837 229.203 71.9743 229.203 72.3597V72.2972C229.916 81.7295 238.182 83.2764 245.223 83.9899C249.749 84.4378 254.4 85.0212 255.171 88.443C255.302 89.0264 255.369 89.542 255.369 89.9951C255.369 94.6462 250.072 97.3597 245.223 97.3597C241.025 97.3597 235.921 95.1618 235.468 90.9639V91.2243L235.406 90.2555L228.817 90.3857L228.88 91.6097C229.723 99.6878 238.182 103.818 245.161 103.818C253.302 103.818 261.958 98.7816 261.958 90.0628C261.958 89.1566 261.828 88.0576 261.635 87.0889C259.89 79.8545 252.203 78.2399 245.999 77.4639C240.963 77.0107 235.729 76.3649 235.729 71.1305C235.729 69.8389 236.052 68.5472 236.828 67.5785C238.703 65.1878 242.124 64.1566 245.223 64.1566C249.104 64.1566 253.364 65.9014 254.27 69.9066Z" fill="#2B1C9A"/>
<path d="M277.651 68.4847V60.7295L271.318 61.9587V68.4847H266.089V73.5212H271.318V93.1618C271.318 101.302 275.776 103.625 282.625 103.625C283.532 103.625 284.5 103.563 285.532 103.495V98.1982C284.563 98.266 283.657 98.3285 282.886 98.3285C279.719 98.3285 277.651 97.3597 277.651 93.2243V73.5212H285.339V68.4847H277.651Z" fill="#2B1C9A"/>
<path d="M325.903 84.4377C325.195 73.4586 316.669 67.969 308.012 67.969C298.773 67.969 289.856 73.9742 289.856 85.9898C289.856 98.0055 298.903 104.078 307.882 104.078C315.054 104.078 322.221 100.266 324.872 92.6461H318.346C316.278 96.5836 312.273 98.4586 307.945 98.4586C302.715 98.4586 296.189 94.3232 296.189 87.4742H325.778C325.903 86.8961 325.971 86.2502 325.971 85.5367C325.971 85.1513 325.971 84.8284 325.903 84.4377ZM319.252 82.245H296.445C297.741 76.0419 302.908 73.5211 308.012 73.5211C313.049 73.5211 318.023 75.9794 319.252 82.245Z" fill="#2B1C9A"/>
<path d="M340.498 72.8128V68.5472H334.233V103.433H340.498V84.5055C340.498 78.1097 345.41 73.3961 351.29 73.3961C352.321 73.3961 353.42 73.5211 354.519 73.844V68.292C353.097 67.969 351.743 67.7711 350.384 67.7711C346.509 67.7711 343.019 69.3232 340.498 72.8128Z" fill="#2B1C9A"/>
<path d="M365.758 78.5628C365.758 74.943 369.373 73.4586 373.248 73.4586C377.06 73.4586 380.357 74.943 380.68 78.0472H386.946C386.492 70.7451 380.357 67.7711 373.446 67.7711C366.659 67.7711 359.492 70.6149 359.492 78.693C359.492 86.5055 366.919 88.443 373.185 88.7034C376.222 88.8336 381.649 89.4795 381.649 93.3545C381.649 97.4899 376.675 98.5211 373.508 98.5211C369.18 98.5211 365.56 96.5836 365.305 92.7086H358.972C359.425 100.979 366.143 104.016 373.378 104.016C379.966 104.016 387.977 101.625 387.977 93.4847C387.977 85.5367 380.487 83.469 373.893 83.0211C370.794 82.8232 365.758 82.9534 365.758 78.5628Z" fill="#2B1C9A"/>
</svg>
