<svg xmlns="http://www.w3.org/2000/svg"  viewBox="0 0 50 50" width="500px" height="500px"><path d="M 12 2 C 9.8333333 2 7.2097711 2.5164032 5.0097656 3.7539062 C 2.8097602 4.9914093 1 7.1 1 10 C 1 13.033333 3.1130215 16.963185 5.140625 20.384766 C 6.9024409 23.35783 8.4286307 25.509659 8.859375 26.111328 C 8.8091442 26.167931 8.7437037 26.216077 8.6992188 26.275391 C 8.1482186 27.010057 8 27.833333 8 28.5 C 8 30.15 9.0167751 31.307709 9.9453125 32.169922 C 10.87385 33.032135 11.75454 33.745408 12.105469 34.447266 C 12.620376 35.47708 13.083155 36.309717 13.730469 36.957031 C 14.084837 37.3114 14.523762 37.568166 15 37.748047 L 15 44 A 1.0001 1.0001 0 1 0 17 44 L 17 37.707031 C 18.167017 37.321611 18.894531 36.447266 18.894531 36.447266 A 1.0001163 1.0001163 0 1 0 17.105469 35.552734 C 17.105469 35.552734 16.966667 36 16.25 36 C 15.722222 36 15.497217 35.895655 15.144531 35.542969 C 14.791845 35.190283 14.379624 34.52292 13.894531 33.552734 C 13.24546 32.254592 12.126149 31.467865 11.304688 30.705078 C 10.483224 29.942291 10 29.35 10 28.5 C 10 28.166667 10.101781 27.739943 10.300781 27.474609 C 10.499781 27.209276 10.75 27 11.5 27 C 12.555556 27 13.292969 27.707031 13.292969 27.707031 A 1.0001 1.0001 0 1 0 14.707031 26.292969 C 14.707031 26.292969 14.031899 25.608898 12.916016 25.236328 C 14.155335 24.663629 16.137094 23.967381 19.138672 23.244141 C 19.607037 25.341694 21.307071 27 23.21875 27 L 29.5 27 C 32.533 27 35 24.309 35 21 C 35 21 38.627667 21.05873 41.177734 22.822266 C 42.345842 23.630086 43.255002 25.210693 43.6875 26.556641 C 43.842093 27.037738 43.869232 27.379105 43.910156 27.722656 C 43.483997 27.534664 42.911176 27.28545 42.013672 27.037109 C 40.840962 26.712831 39.643761 26.677852 38.894531 26.470703 C 38.519916 26.367129 38.29376 26.236152 38.185547 26.123047 C 38.077334 26.009942 38 25.900206 38 25.5 C 38 25.142667 38.423828 24.888672 38.423828 24.888672 A 1.0006508 1.0006508 0 0 0 37.503906 23.111328 C 37.503906 23.111328 36 23.857333 36 25.5 C 36 26.287294 36.269166 27.013496 36.740234 27.505859 C 37.211302 27.998223 37.797818 28.242637 38.361328 28.398438 C 39.019924 28.580528 39.686431 28.665799 40.296875 28.75 C 40.720763 29.423781 42.159219 31.473868 44.923828 32.890625 C 43.772702 32.97902 42.279393 33 40 33 C 37.75 33 35.777171 33.866643 35.072266 35.628906 A 1.0001 1.0001 0 1 0 36.927734 36.371094 C 37.222829 35.633357 38.25 35 40 35 C 40.386472 35 40.647802 34.996456 41 34.996094 L 41 35 C 41 35.25 40.95756 35.322735 40.791016 35.498047 C 40.624469 35.673359 40.298596 35.891037 39.878906 36.130859 C 39.039526 36.610505 37.784354 37.194963 37.105469 38.552734 C 36.165097 40.433477 35.433477 41.165097 33.552734 42.105469 C 32.7107 42.526843 32.035949 43.249837 31.4375 44.068359 C 30.839051 44.886882 30.344062 45.803751 30.050781 46.683594 A 1.0005646 1.0005646 0 1 0 31.949219 47.316406 C 32.155938 46.696249 32.570934 45.907024 33.052734 45.248047 C 33.534535 44.589069 34.1103 44.063157 34.447266 43.894531 C 36.566523 42.834903 37.834903 41.566523 38.894531 39.447266 C 39.215646 38.805037 39.960474 38.389495 40.871094 37.869141 C 41.326404 37.608963 41.813031 37.326641 42.240234 36.876953 C 42.667438 36.427265 43 35.75 43 35 L 43 34.986328 C 44.009031 34.971735 44.880012 34.941081 45.599609 34.869141 C 46.94156 34.734946 47.971329 34.442734 48.707031 33.707031 A 1.0001 1.0001 0 0 0 48.195312 32.019531 C 46.205815 31.621632 44.778528 30.718073 43.771484 29.826172 C 44.027579 29.923242 44.301941 30 44.638672 30 C 45.191399 30 45.680067 29.52591 45.830078 29.175781 C 45.980089 28.825653 46 28.517833 46 28.1875 C 46 27.526833 45.857548 26.770386 45.591797 25.943359 C 45.260857 24.913465 44.740224 23.781193 43.978516 22.785156 C 44.630048 21.718609 45 20.394611 45 19 C 45 15.636 43.023 13 40.5 13 C 40.198572 13 39.905884 13.038749 39.623047 13.111328 C 38.816606 11.970339 37.454382 11.520678 36.341797 11.273438 C 35.301317 11.042219 34.670009 11.050502 34.388672 11.044922 C 33.570471 10.043986 32.390205 9.506417 31.341797 9.2734375 C 30.370022 9.0574874 29.858615 9.0701817 29.517578 9.0605469 C 28.766949 7.672565 27.549475 6.7951377 26.441406 6.4257812 C 25.335149 6.0570287 24.619855 6.0691995 24.353516 6.0625 C 24.237832 5.9967742 22.614724 5.0680415 20.263672 4.078125 C 17.830844 3.0537763 14.766667 2 12 2 z M 12 4 C 14.233333 4 17.169156 4.9462237 19.486328 5.921875 C 21.8035 6.8975263 23.503906 7.8691406 23.503906 7.8691406 A 1.0001 1.0001 0 0 0 24 8 C 24 8 24.852249 8.0054399 25.808594 8.3242188 C 26.764939 8.6430005 27.677272 9.1958799 28.050781 10.316406 A 1.0001 1.0001 0 0 0 29 11 C 29 11 29.905705 11.003801 30.908203 11.226562 C 31.910701 11.44934 32.843983 11.924293 33.105469 12.447266 A 1.0001 1.0001 0 0 0 34 13 C 34 13 34.905705 13.003801 35.908203 13.226562 C 36.56049 13.371516 37.164106 13.62745 37.591797 13.929688 C 36.231022 14.488783 34.456701 15.217918 34.410156 15.238281 C 33.896485 15.460568 33.36597 15.843457 32.931641 16.318359 C 31.989941 15.495049 30.798075 15 29.5 15 C 29.016 15 28.545656 15.069266 28.097656 15.197266 C 27.852656 15.267266 21.710219 17.392484 21.699219 17.396484 C 20.235631 17.923896 19.285878 19.317081 19.056641 21.203125 C 14.983619 22.156767 12.552202 23.106292 11.146484 23.873047 C 10.739959 24.094788 10.426636 24.297417 10.164062 24.486328 C 9.501428 23.544115 8.3172914 21.825468 6.859375 19.365234 C 4.8869785 16.036815 3 11.966667 3 10 C 3 7.9 4.1902398 6.5085907 5.9902344 5.4960938 C 7.7902289 4.4835968 10.166667 4 12 4 z M 9.5 7 A 1.5 1.5 0 0 0 9.5 10 A 1.5 1.5 0 0 0 9.5 7 z M 18 10 C 16.833333 10 15.921991 10.29584 15.302734 10.605469 C 14.683477 10.915097 14.292969 11.292969 14.292969 11.292969 A 1.0001 1.0001 0 1 0 15.707031 12.707031 C 15.707031 12.707031 15.816523 12.584903 16.197266 12.394531 C 16.578009 12.20416 17.166667 12 18 12 A 1.0001 1.0001 0 1 0 18 10 z M 9 13 A 1 1 0 0 0 9 15 A 1 1 0 0 0 9 13 z M 22 13 C 18.555556 13 16.292969 15.292969 16.292969 15.292969 A 1.0001 1.0001 0 1 0 17.707031 16.707031 C 17.707031 16.707031 19.444444 15 22 15 A 1.0001 1.0001 0 1 0 22 13 z M 40.5 15 C 41.855 15 43 16.832 43 19 C 43 19.846291 42.828423 20.650704 42.511719 21.330078 C 42.445318 21.280383 42.385024 21.225188 42.316406 21.177734 C 40.897033 20.196148 39.329386 19.671339 38 19.375 L 38 19 C 38 16.832 39.145 15 40.5 15 z M 29.5 17 C 31.43 17 33 18.794 33 21 C 33 23.206 31.43 25 29.5 25 C 27.57 25 26 23.206 26 21 C 26 18.794 27.57 17 29.5 17 z M 32.972656 27.986328 A 1.0001 1.0001 0 0 0 32 29.011719 C 32 29.011719 32.007798 29.716205 31.923828 30.599609 C 31.839808 31.483013 31.625382 32.543805 31.367188 33.03125 C 30.127532 35.372818 30 37.683333 30 39 A 1.0001 1.0001 0 1 0 32 39 C 32 37.816667 32.122467 35.877182 33.132812 33.96875 C 33.659619 32.974195 33.81933 31.78516 33.914062 30.789062 C 34.008796 29.792966 34 28.988281 34 28.988281 A 1.0001 1.0001 0 0 0 32.972656 27.986328 z M 16.015625 29.988281 A 1.0001 1.0001 0 0 0 15.105469 31.447266 L 16.105469 33.447266 A 1.0001163 1.0001163 0 1 0 17.894531 32.552734 L 16.894531 30.552734 A 1.0001 1.0001 0 0 0 16.015625 29.988281 z"/></svg>