<svg width="26" height="25" viewBox="0 0 26 25" fill="none" xmlns="http://www.w3.org/2000/svg">
<path fill-rule="evenodd" clip-rule="evenodd" d="M4.49979 13.8556L4.49992 13.6366C4.53242 12.9887 4.74043 12.3611 5.10251 11.8184C5.70503 11.1667 6.1177 10.3677 6.29721 9.5055C6.2976 8.83902 6.298 8.16302 6.35661 7.49658C6.65925 4.28815 9.83313 2.07158 12.967 2.07342L13.0446 2.07346C16.1784 2.0753 19.3496 4.29557 19.6582 7.50436C19.716 8.17087 19.6574 8.84683 19.7055 9.51334C19.8864 10.3778 20.2977 11.1796 20.8975 11.8372C21.2616 12.3755 21.4693 13.0011 21.498 13.6465L21.4979 13.856C21.5191 14.7264 21.2188 15.575 20.6524 16.2453C19.9041 17.029 18.8889 17.5162 17.7992 17.6146C14.6036 17.9556 11.3796 17.9537 8.18438 17.609C7.09596 17.505 6.08287 17.0173 5.33278 16.2364C4.77596 15.5649 4.48069 14.7211 4.49979 13.8556Z" stroke="#0A243F" stroke-width="1.5" stroke-linecap="round" stroke-linejoin="round"/>
<path d="M10.5498 20.9238C11.0487 21.5507 11.7817 21.9567 12.5864 22.0519C13.3913 22.1471 14.2015 21.9236 14.8379 21.4309C15.0336 21.2852 15.2097 21.1157 15.3621 20.9266" stroke="#0A243F" stroke-width="1.5" stroke-linecap="round" stroke-linejoin="round"/>
</svg>
